<svg width="1206" height="321" viewBox="0 0 1206 321" fill="none" xmlns="http://www.w3.org/2000/svg">
<path d="M509.1 79.8998H547.2L495.4 248.6H462.9L425 154.1L388.6 248.5H356.1L302.9 79.8998H341.7L374.7 191.9L419 81.5998H431.3L476.8 191.9L509.1 79.8998ZM671.1 248.6L659.3 216.6H592L580.4 248.6H541.9L607.9 79.8998H642.4L710.6 248.6H671.1ZM625.5 124.5L603.6 184.7H647.7L625.5 124.5ZM798.9 160.4H888.8C888.6 187.1 880.5 209.1 864.5 226.4C848.4 243.6 827.8 252.2 802.6 252.2C777.7 252.2 756.9 243.9 740.2 227.4C723.7 210.7 715.4 189.7 715.4 164.5C715.4 139.1 723.6 118.1 740 101.4C756.4 84.6998 777 76.2998 801.9 76.2998C822.9 76.2998 841.3 82.2998 857.1 94.3998C872.8 106.3 882.6 121.7 886.5 140.7H848.9C846.5 134.6 843 129.4 838.5 125C834 120.5 828.6 117 822.4 114.6C816.3 112.2 809.7 111 802.6 111C787.7 111 775.5 116 766.2 125.9C756.9 135.9 752.2 148.7 752.2 164.4C752.2 174.7 754.3 183.8 758.5 191.9C762.7 199.9 768.5 206.2 776.1 210.7C783.8 215.2 792.6 217.4 802.6 217.4C809.8 217.4 816.7 216.2 823.1 213.8C829.5 211.4 835 208 839.5 203.7C844.2 199.2 847.5 194.1 849.6 188.5H799V160.4H798.9ZM1122 248.6H1084.9L1068.3 138.5L1018 248.4H1009.1L958.7 138.5L942 248.6H904.7L931.2 79.8998H967.8L1013.3 183.3L1059.1 79.8998H1095.7L1122 248.6ZM1150.1 248.6V79.8998H1186.7V248.6H1150.1Z" fill="url(#paint0_linear_2107_184)"/>
<path d="M294.6 159.8L272.4 147C266.1 89.7004 220.6 44.1004 163.3 37.8004L150.6 16.0004C150.1 15.2004 149 15.2004 148.5 16.0004L136 37.8004C78.4004 44.0004 32.7004 89.9004 26.6004 147.6L5.50039 159.8C4.70039 160.3 4.70039 161.4 5.50039 161.8L26.7004 174C32.9004 231.5 78.6004 277.2 136.1 283.4L148.6 305C149.1 305.8 150.2 305.8 150.7 305L163.2 283.4C220.5 277.2 266 231.8 272.4 174.6L294.6 161.7C295.4 161.4 295.4 160.2 294.6 159.8ZM149.5 54.7004C153.1 57.3004 156.8 60.0004 160.5 62.6004C160.4 66.8004 160.4 70.9004 160.3 75.1004C153.4 75.1004 146.4 75.1004 139.5 75.2004C139.5 71.0004 139.4 66.8004 139.4 62.7004C142.7 60.0004 146.1 57.4004 149.5 54.7004ZM39.9004 160.6C39.9004 151.8 40.9004 143.3 42.9004 135C48.5004 118.2 57.4004 106.4 63.4004 99.6004C61.9004 103.9 57.4004 118.3 63.4004 134.8C70.8004 155.4 88.7004 163.7 91.9004 165.2C74.6004 165.1 57.3004 164.9 40.0004 164.8C40.0004 163.4 39.9004 162 39.9004 160.6ZM126.9 180.5C124.1 186.2 118.2 187.5 117.4 187.7C113.9 190.7 107.1 197.4 104.3 208.1C98.3004 231.1 117.1 249.7 118 250.5C111.3 249.6 82.8004 244.9 63.4004 219.7C52.9004 206.1 49.4004 192.1 48.1004 184.1C51.7004 186.9 56.9004 190.1 63.8004 191.5C85.6004 195.8 102.9 177.4 104.3 175.8C104.2 175.2 103.2 168.9 107.6 164.7C112 160.5 119.5 161 124 165C128.6 169.1 129.3 175.7 126.9 180.5ZM160.5 263.5C157.3 268.2 151.6 268.4 150.7 268.5C149.8 268.5 143.2 268.7 139.6 263.3C137.1 259.5 137 254.6 139.3 250.5C139.4 250.3 140.2 249.5 140 248.2C139.9 247.4 139.5 246.9 139.3 246.6V128.2C146.3 128.2 153.3 128.3 160.3 128.3C160.3 167.6 160.2 206.9 160.2 246.2C160.1 246.2 159.2 246.9 159.2 248C159.2 249.2 160.1 249.9 160.2 249.9C163 254.3 163.1 259.6 160.5 263.5ZM160.9 114.2C153.7 114.2 146.4 114.1 139.2 114.1C137.9 114 136 114 133.8 114.2C122.6 115.5 115.3 122.9 113.4 124.8C106.1 132.4 104.2 141.1 103.7 144.6C101.5 142.6 83.5004 125.9 85.2004 99.5004C86.5004 79.8004 97.9004 67.0004 104.3 61.1004C108.7 76.8004 123.1 88.4004 140.2 88.4004H159C176.2 88.4004 190.7 76.8004 195 60.9004C198 63.6004 212.5 77.2004 213.8 99.8004C215.3 125.3 198.7 141.9 196.3 144.3C195.9 141.3 194.4 131.8 186.3 123.9C179.1 116.9 170.9 115.3 168.3 114.8C165.4 114.2 162.8 114.1 160.9 114.2ZM236.8 219.8C234.7 222.6 224.2 235.7 205.2 244.1C196.1 248.1 187.9 249.8 182.2 250.6C185.5 247.5 191.8 240.7 194.9 230C196.1 226 198.4 218 195.9 208.1C193 196.8 185.7 190.1 182.8 187.7C176.8 186.2 172.5 181.3 172 175.8C172 175.4 171.5 169.3 176.2 165.2C180.2 161.7 187.1 160.4 191.8 164.2C195.1 166.9 196.6 171.4 195.8 175.9C197.3 177.6 214.5 195.8 236.3 191.6C243.2 190.3 248.5 187.1 252 184.3C250.9 191.6 247.6 205.8 236.8 219.8ZM259 165.1C241.6 165.1 224.2 165.1 206.8 165C209.9 163.7 228.2 155.4 235.6 134.6C241.4 118.2 236.9 104.1 235.4 99.8004C241.1 105.7 250.6 117.2 256 134.6C256 134.6 256 134.6 256 134.7C258 143.1 259.1 151.8 259.1 160.6C259.1 162.1 259.1 163.6 259 165.1Z" fill="url(#paint1_linear_2107_184)"/>
<defs>
<linearGradient id="paint0_linear_2107_184" x1="744.8" y1="76.2998" x2="744.8" y2="252.2" gradientUnits="userSpaceOnUse">
<stop offset="0.610313" stop-color="#F3F3F3"/>
<stop offset="1" stop-color="#636363"/>
</linearGradient>
<linearGradient id="paint1_linear_2107_184" x1="150.05" y1="15.4004" x2="150.05" y2="305.6" gradientUnits="userSpaceOnUse">
<stop offset="0.610313" stop-color="#F3F3F3"/>
<stop offset="1" stop-color="#636363"/>
</linearGradient>
</defs>
</svg>
